<svg width="31" height="31" viewBox="0 0 31 31" fill="none" xmlns="http://www.w3.org/2000/svg">
<rect x="3.49951" y="3.5" width="24" height="24" rx="6" fill="#FF0000"/>
<path d="M14.9125 9.54013C12.9646 9.76274 11.0235 11.3761 10.9434 13.6806C10.893 15.0877 11.2833 16.1434 12.5915 16.4398C13.1591 15.4146 12.4083 15.1885 12.2916 14.4469C11.8121 11.4077 15.716 9.3351 17.7589 11.4569C19.1724 12.9261 18.2419 17.4462 15.962 16.9764C13.7783 16.5277 17.031 12.9296 15.2879 12.2231C13.871 11.649 13.1179 13.9794 13.7898 15.1369C13.3961 17.1275 12.548 19.0033 12.8913 21.5C14.0049 20.6728 14.3803 19.0888 14.6882 17.4368C15.2479 17.7848 15.5466 18.1468 16.2607 18.2031C18.8943 18.4116 20.3649 15.5119 20.0056 12.8371C19.6863 10.4657 17.3744 9.25894 14.9125 9.54013Z" fill="white"/>
</svg>
