<svg aria-hidden="true" style="position: absolute; width: 0; height: 0; overflow: hidden;" version="1.1" xmlns="http://www.w3.org/2000/svg" xmlns:xlink="http://www.w3.org/1999/xlink">
    <defs>
        <symbol id="icon-close" viewBox="0 0 32 32">
            <path d="M18.121 16l5.938-5.938c0.282-0.281 0.44-0.663 0.441-1.061s-0.157-0.78-0.439-1.062c-0.281-0.282-0.663-0.44-1.061-0.441s-0.78 0.157-1.062 0.439l-5.937 5.937-5.938-5.937c-0.282-0.282-0.664-0.44-1.063-0.44s-0.781 0.158-1.063 0.44c-0.282 0.282-0.44 0.664-0.44 1.063s0.158 0.781 0.44 1.063l5.937 5.937-5.937 5.937c-0.282 0.282-0.44 0.664-0.44 1.063s0.158 0.781 0.44 1.063c0.282 0.282 0.664 0.44 1.063 0.44s0.781-0.158 1.063-0.44l5.938-5.938 5.937 5.938c0.282 0.282 0.664 0.44 1.063 0.44s0.781-0.158 1.063-0.44c0.282-0.282 0.44-0.664 0.44-1.063s-0.158-0.781-0.44-1.063l-5.941-5.937z"></path>
        </symbol>
        <symbol id="icon-menu-outline" viewBox="0 0 32 32">
            <path d="M4 10c0-0.552 0.448-1 1-1h22c0.552 0 1 0.448 1 1s-0.448 1-1 1h-22c-0.552 0-1-0.448-1-1z"></path>
            <path d="M4 16c0-0.552 0.448-1 1-1h22c0.552 0 1 0.448 1 1s-0.448 1-1 1h-22c-0.552 0-1-0.448-1-1z"></path>
            <path d="M4 22c0-0.552 0.448-1 1-1h22c0.552 0 1 0.448 1 1s-0.448 1-1 1h-22c-0.552 0-1-0.448-1-1z"></path>
        </symbol>
        <symbol id="icon-arrow-back-outline" viewBox="0 0 32 32">
            <path d="M16.311 5.939c0.586 0.586 0.586 1.536 0 2.121l-7.939 7.939 7.939 7.939c0.586 0.586 0.586 1.536 0 2.121s-1.536 0.586-2.121 0l-9-9c-0.586-0.586-0.586-1.536 0-2.121l9-9c0.586-0.586 1.536-0.586 2.121 0z"></path>
            <path d="M6 16c0-0.828 0.672-1.5 1.5-1.5h18.25c0.828 0 1.5 0.672 1.5 1.5s-0.672 1.5-1.5 1.5h-18.25c-0.828 0-1.5-0.672-1.5-1.5z"></path>
        </symbol>
        <symbol id="icon-googleplay" viewBox="0 0 28 32">
            <path fill="#ea4335" style="fill: var(--color1, #ea4335)" d="M13.535 13.001l-10.772 11.286c0.121 0.429 0.338 0.824 0.636 1.156s0.666 0.591 1.079 0.759c0.413 0.167 0.858 0.238 1.303 0.207s0.876-0.164 1.261-0.387l12.121-6.903-5.627-6.117z"></path>
            <path fill="#fbbc04" style="fill: var(--color2, #fbbc04)" d="M24.428 11.083l-5.241-3.002-5.9 5.177 5.924 5.844 5.201-2.97c0.461-0.241 0.847-0.604 1.116-1.049s0.412-0.955 0.412-1.475-0.142-1.030-0.412-1.475c-0.269-0.445-0.655-0.808-1.116-1.049l0.016 0z"></path>
            <path fill="#4285f4" style="fill: var(--color3, #4285f4)" d="M2.763 2.871c-0.065 0.241-0.097 0.489-0.096 0.738v19.939c0.001 0.249 0.033 0.497 0.096 0.739l11.141-10.997-11.141-10.419z"></path>
            <path fill="#34a853" style="fill: var(--color4, #34a853)" d="M13.615 13.579l5.571-5.498-12.105-6.935c-0.455-0.267-0.973-0.408-1.501-0.409-1.31-0.003-2.461 0.867-2.817 2.127l10.852 10.716z"></path>
        </symbol>
        <symbol id="icon-plus" viewBox="0 0 32 32">
            <path d="M31 12h-11v-11c0-0.552-0.448-1-1-1h-6c-0.552 0-1 0.448-1 1v11h-11c-0.552 0-1 0.448-1 1v6c0 0.552 0.448 1 1 1h11v11c0 0.552 0.448 1 1 1h6c0.552 0 1-0.448 1-1v-11h11c0.552 0 1-0.448 1-1v-6c0-0.552-0.448-1-1-1z"></path>
        </symbol>
        <symbol id="icon-minus" viewBox="0 0 32 32">
            <path d="M0 13v6c0 0.552 0.448 1 1 1h30c0.552 0 1-0.448 1-1v-6c0-0.552-0.448-1-1-1h-30c-0.552 0-1 0.448-1 1z"></path>
        </symbol>
        <symbol id="icon-arrow-left" viewBox="0 0 32 32">
            <path d="M12.586 27.414l-10-10c-0.781-0.781-0.781-2.047 0-2.828l10-10c0.781-0.781 2.047-0.781 2.828 0s0.781 2.047 0 2.828l-6.586 6.586h19.172c1.105 0 2 0.895 2 2s-0.895 2-2 2h-19.172l6.586 6.586c0.39 0.39 0.586 0.902 0.586 1.414s-0.195 1.024-0.586 1.414c-0.781 0.781-2.047 0.781-2.828 0z"></path>
        </symbol>
        <symbol id="icon-Pinterest" viewBox="0 0 32 32">
            <title>Pinterest</title>
            <path fill="#f00" style="fill: var(--color1, #f00)" d="M9.806 3.613h12.387c3.421 0 6.194 2.773 6.194 6.194v12.387c0 3.421-2.773 6.194-6.194 6.194h-12.387c-3.421 0-6.194-2.773-6.194-6.194v-12.387c0-3.421 2.773-6.194 6.194-6.194z"></path>
            <path fill="#fff" style="fill: var(--color2, #fff)" d="M15.394 9.848c-2.011 0.23-4.014 1.895-4.097 4.274-0.052 1.453 0.351 2.542 1.701 2.848 0.586-1.058-0.189-1.292-0.31-2.057-0.495-3.137 3.535-5.277 5.644-3.086 1.459 1.517 0.499 6.183-1.855 5.698-2.254-0.463 1.103-4.177-0.696-4.907-1.463-0.593-2.24 1.813-1.546 3.008-0.406 2.055-1.282 3.991-0.927 6.568 1.15-0.854 1.537-2.489 1.855-4.194 0.578 0.359 0.886 0.733 1.623 0.791 2.719 0.215 4.237-2.778 3.866-5.539-0.33-2.448-2.716-3.694-5.257-3.403z"></path>
        </symbol>
        <symbol id="icon-Instagram" viewBox="0 0 24 24">
            <defs>
                <linearGradient id="ig-gradient" x1="23.5387" y1="24" x2="-0.461279" y2="0" gradientUnits="userSpaceOnUse">
                    <stop stop-color="#FBE18A"/>
                    <stop offset="0.21" stop-color="#FCBB45"/>
                    <stop offset="0.38" stop-color="#F75274"/>
                    <stop offset="0.52" stop-color="#D53692"/>
                    <stop offset="0.74" stop-color="#8F39CE"/>
                    <stop offset="1" stop-color="#5B4FE9"/>
                </linearGradient>
            </defs>
            <rect width="24" height="24" rx="6" fill="url(#ig-gradient)"/>
            <path d="M9.89162 12.073C9.89162 10.8667 10.8699 9.88848 12.0769 9.88848C13.2839 9.88848 14.2627 10.8667 14.2627 12.073C14.2627 13.2793 13.2839 14.2575 12.0769 14.2575C10.8699 14.2575 9.89162 13.2793 9.89162 12.073ZM8.71002 12.073C8.71002 13.9314 10.2174 15.4378 12.0769 15.4378C13.9364 15.4378 15.4438 13.9314 15.4438 12.073C15.4438 10.2146 13.9364 8.70811 12.0769 8.70811C10.2174 8.70811 8.71002 10.2146 8.71002 12.073ZM14.7902 8.57469C14.7902 8.73022 14.8363 8.88227 14.9227 9.01162C15.0091 9.14097 15.1319 9.24181 15.2757 9.30138C15.4194 9.36096 15.5776 9.37659 15.7303 9.34631C15.8829 9.31603 16.0231 9.24119 16.1332 9.13126C16.2433 9.02133 16.3183 8.88125 16.3487 8.72872C16.3791 8.5762 16.3636 8.41808 16.3041 8.27437C16.2446 8.13066 16.1438 8.00781 16.0145 7.92135C15.8851 7.83489 15.733 7.78871 15.5774 7.78865H15.5771C15.3685 7.78875 15.1684 7.87158 15.0209 8.01896C14.8734 8.16635 14.7904 8.36622 14.7902 8.57469ZM9.42792 17.4069C8.78865 17.3778 8.44119 17.2714 8.21028 17.1815C7.90415 17.0624 7.68573 16.9205 7.45608 16.6913C7.22644 16.4621 7.08428 16.2441 6.96563 15.9381C6.87562 15.7074 6.76913 15.3601 6.74007 14.7212C6.70828 14.0305 6.70194 13.823 6.70194 12.073C6.70194 10.3231 6.70881 10.1162 6.74007 9.42484C6.76918 8.78596 6.87645 8.43928 6.96563 8.20793C7.08481 7.90199 7.22675 7.6837 7.45608 7.45419C7.68542 7.22468 7.90363 7.08261 8.21028 6.96403C8.44108 6.87407 8.78865 6.76765 9.42792 6.73861C10.1191 6.70684 10.3267 6.70049 12.0769 6.70049C13.8271 6.70049 14.0349 6.70736 14.7267 6.73861C15.3659 6.7677 15.7128 6.87491 15.9443 6.96403C16.2504 7.08261 16.4689 7.22499 16.6985 7.45419C16.9282 7.68338 17.0698 7.90199 17.189 8.20793C17.279 8.4386 17.3855 8.78596 17.4145 9.42484C17.4463 10.1162 17.4527 10.3231 17.4527 12.073C17.4527 13.823 17.4463 14.0299 17.4145 14.7212C17.3854 15.3601 17.2784 15.7073 17.189 15.9381C17.0698 16.2441 16.9278 16.4623 16.6985 16.6913C16.4692 16.9203 16.2504 17.0624 15.9443 17.1815C15.7135 17.2715 15.3659 17.3779 14.7267 17.4069C14.0355 17.4387 13.8279 17.445 12.0769 17.445C10.3259 17.445 10.1189 17.4387 9.42792 17.4069ZM9.37363 5.5597C8.67561 5.59147 8.19864 5.70209 7.78209 5.86408C7.3507 6.03136 6.98551 6.25578 6.62058 6.61992C6.25565 6.98405 6.03167 7.3496 5.86428 7.78074C5.7022 8.19729 5.59152 8.67372 5.55973 9.37132C5.52742 10.07 5.52002 10.2934 5.52002 12.073C5.52002 13.8525 5.52742 14.0759 5.55973 14.7746C5.59152 15.4723 5.7022 15.9486 5.86428 16.3652C6.03167 16.7961 6.2557 17.162 6.62058 17.526C6.98546 17.89 7.3507 18.1141 7.78209 18.2819C8.19942 18.4439 8.67561 18.5545 9.37363 18.5862C10.0731 18.618 10.2963 18.6259 12.0769 18.6259C13.8575 18.6259 14.0811 18.6185 14.7802 18.5862C15.4782 18.5545 15.9549 18.4439 16.3717 18.2819C16.8028 18.1141 17.1683 17.8902 17.5332 17.526C17.8982 17.1619 18.1217 16.7961 18.2895 16.3652C18.4516 15.9486 18.5628 15.4722 18.5941 14.7746C18.6259 14.0754 18.6333 13.8525 18.6333 12.073C18.6333 10.2934 18.6259 10.07 18.5941 9.37132C18.5623 8.67367 18.4516 8.19703 18.2895 7.78074C18.1217 7.34987 17.8976 6.98463 17.5332 6.61992C17.1689 6.25521 16.8028 6.03136 16.3722 5.86408C15.9549 5.70209 15.4782 5.59095 14.7807 5.5597C14.0816 5.52794 13.8581 5.52002 12.0774 5.52002C10.2968 5.52002 10.0731 5.52741 9.37363 5.5597Z" fill="white"/>
        </symbol>
    </defs>
</svg>