<svg aria-hidden="true" style="position: absolute; width: 0; height: 0; overflow: hidden;" version="1.1" xmlns="http://www.w3.org/2000/svg" xmlns:xlink="http://www.w3.org/1999/xlink">
<defs>
<symbol id="icon-close" viewBox="0 0 32 32">
<path d="M18.121 16l5.938-5.938c0.282-0.281 0.44-0.663 0.441-1.061s-0.157-0.78-0.439-1.062c-0.281-0.282-0.663-0.44-1.061-0.441s-0.78 0.157-1.062 0.439l-5.937 5.937-5.938-5.937c-0.282-0.282-0.664-0.44-1.063-0.44s-0.781 0.158-1.063 0.44c-0.282 0.282-0.44 0.664-0.44 1.063s0.158 0.781 0.44 1.063l5.937 5.937-5.937 5.937c-0.282 0.282-0.44 0.664-0.44 1.063s0.158 0.781 0.44 1.063c0.282 0.282 0.664 0.44 1.063 0.44s0.781-0.158 1.063-0.44l5.938-5.938 5.937 5.938c0.282 0.282 0.664 0.44 1.063 0.44s0.781-0.158 1.063-0.44c0.282-0.282 0.44-0.664 0.44-1.063s-0.158-0.781-0.44-1.063l-5.941-5.937z"></path>
</symbol>
<symbol id="icon-menu-outline" viewBox="0 0 32 32">
<path d="M4 10c0-0.552 0.448-1 1-1h22c0.552 0 1 0.448 1 1s-0.448 1-1 1h-22c-0.552 0-1-0.448-1-1z"></path>
<path d="M4 16c0-0.552 0.448-1 1-1h22c0.552 0 1 0.448 1 1s-0.448 1-1 1h-22c-0.552 0-1-0.448-1-1z"></path>
<path d="M4 22c0-0.552 0.448-1 1-1h22c0.552 0 1 0.448 1 1s-0.448 1-1 1h-22c-0.552 0-1-0.448-1-1z"></path>
</symbol>
<symbol id="icon-arrow-back-outline" viewBox="0 0 32 32">
<path d="M16.311 5.939c0.586 0.586 0.586 1.536 0 2.121l-7.939 7.939 7.939 7.939c0.586 0.586 0.586 1.536 0 2.121s-1.536 0.586-2.121 0l-9-9c-0.586-0.586-0.586-1.536 0-2.121l9-9c0.586-0.586 1.536-0.586 2.121 0z"></path>
<path d="M6 16c0-0.828 0.672-1.5 1.5-1.5h18.25c0.828 0 1.5 0.672 1.5 1.5s-0.672 1.5-1.5 1.5h-18.25c-0.828 0-1.5-0.672-1.5-1.5z"></path>
</symbol>
<symbol id="icon-googleplay" viewBox="0 0 28 32">
<path fill="#ea4335" style="fill: var(--color1, #ea4335)" d="M13.535 13.001l-10.772 11.286c0.121 0.429 0.338 0.824 0.636 1.156s0.666 0.591 1.079 0.759c0.413 0.167 0.858 0.238 1.303 0.207s0.876-0.164 1.261-0.387l12.121-6.903-5.627-6.117z"></path>
<path fill="#fbbc04" style="fill: var(--color2, #fbbc04)" d="M24.428 11.083l-5.241-3.002-5.9 5.177 5.924 5.844 5.201-2.97c0.461-0.241 0.847-0.604 1.116-1.049s0.412-0.955 0.412-1.475-0.142-1.030-0.412-1.475c-0.269-0.445-0.655-0.808-1.116-1.049l0.016 0z"></path>
<path fill="#4285f4" style="fill: var(--color3, #4285f4)" d="M2.763 2.871c-0.065 0.241-0.097 0.489-0.096 0.738v19.939c0.001 0.249 0.033 0.497 0.096 0.739l11.141-10.997-11.141-10.419z"></path>
<path fill="#34a853" style="fill: var(--color4, #34a853)" d="M13.615 13.579l5.571-5.498-12.105-6.935c-0.455-0.267-0.973-0.408-1.501-0.409-1.31-0.003-2.461 0.867-2.817 2.127l10.852 10.716z"></path>
</symbol>
<symbol id="icon-plus" viewBox="0 0 32 32">
<path d="M31 12h-11v-11c0-0.552-0.448-1-1-1h-6c-0.552 0-1 0.448-1 1v11h-11c-0.552 0-1 0.448-1 1v6c0 0.552 0.448 1 1 1h11v11c0 0.552 0.448 1 1 1h6c0.552 0 1-0.448 1-1v-11h11c0.552 0 1-0.448 1-1v-6c0-0.552-0.448-1-1-1z"></path>
</symbol>
<symbol id="icon-minus" viewBox="0 0 32 32">
<path d="M0 13v6c0 0.552 0.448 1 1 1h30c0.552 0 1-0.448 1-1v-6c0-0.552-0.448-1-1-1h-30c-0.552 0-1 0.448-1 1z"></path>
</symbol>
</defs>
</svg>
