<svg aria-hidden="true" style="position: absolute; width: 0; height: 0; overflow: hidden;" version="1.1" xmlns="http://www.w3.org/2000/svg" xmlns:xlink="http://www.w3.org/1999/xlink">
    <defs>
        <symbol id="icon-close" viewBox="0 0 32 32">
            <path d="M18.121 16l5.938-5.938c0.282-0.281 0.44-0.663 0.441-1.061s-0.157-0.78-0.439-1.062c-0.281-0.282-0.663-0.44-1.061-0.441s-0.78 0.157-1.062 0.439l-5.937 5.937-5.938-5.937c-0.282-0.282-0.664-0.44-1.063-0.44s-0.781 0.158-1.063 0.44c-0.282 0.282-0.44 0.664-0.44 1.063s0.158 0.781 0.44 1.063l5.937 5.937-5.937 5.937c-0.282 0.282-0.44 0.664-0.44 1.063s0.158 0.781 0.44 1.063c0.282 0.282 0.664 0.44 1.063 0.44s0.781-0.158 1.063-0.44l5.938-5.938 5.937 5.938c0.282 0.282 0.664 0.44 1.063 0.44s0.781-0.158 1.063-0.44c0.282-0.282 0.44-0.664 0.44-1.063s-0.158-0.781-0.44-1.063l-5.941-5.937z"></path>
        </symbol>
        <symbol id="icon-menu-outline" viewBox="0 0 32 32">
            <path d="M4 10c0-0.552 0.448-1 1-1h22c0.552 0 1 0.448 1 1s-0.448 1-1 1h-22c-0.552 0-1-0.448-1-1z"></path>
            <path d="M4 16c0-0.552 0.448-1 1-1h22c0.552 0 1 0.448 1 1s-0.448 1-1 1h-22c-0.552 0-1-0.448-1-1z"></path>
            <path d="M4 22c0-0.552 0.448-1 1-1h22c0.552 0 1 0.448 1 1s-0.448 1-1 1h-22c-0.552 0-1-0.448-1-1z"></path>
        </symbol>
        <symbol id="icon-arrow-back-outline" viewBox="0 0 32 32">
            <path d="M16.311 5.939c0.586 0.586 0.586 1.536 0 2.121l-7.939 7.939 7.939 7.939c0.586 0.586 0.586 1.536 0 2.121s-1.536 0.586-2.121 0l-9-9c-0.586-0.586-0.586-1.536 0-2.121l9-9c0.586-0.586 1.536-0.586 2.121 0z"></path>
            <path d="M6 16c0-0.828 0.672-1.5 1.5-1.5h18.25c0.828 0 1.5 0.672 1.5 1.5s-0.672 1.5-1.5 1.5h-18.25c-0.828 0-1.5-0.672-1.5-1.5z"></path>
        </symbol>
<symbol id="icon-Pinterest" viewBox="0 0 32 32">
<path fill="#f00" style="fill: var(--color1, #f00)" d="M8 0h16c4.418 0 8 3.582 8 8v16c0 4.418-3.582 8-8 8h-16c-4.418 0-8-3.582-8-8v-16c0-4.418 3.582-8 8-8z"></path>
<path fill="#fff" style="fill: var(--color2, #fff)" d="M15.217 8.053c-2.597 0.297-5.185 2.448-5.292 5.521-0.067 1.876 0.453 3.284 2.197 3.679 0.757-1.367-0.244-1.668-0.4-2.657-0.639-4.052 4.566-6.816 7.29-3.987 1.885 1.959 0.644 7.986-2.396 7.359-2.912-0.598 1.425-5.396-0.899-6.338-1.889-0.765-2.893 2.342-1.997 3.885-0.525 2.654-1.656 5.155-1.198 8.484 1.485-1.103 1.985-3.215 2.396-5.418 0.746 0.464 1.145 0.947 2.097 1.022 3.511 0.278 5.472-3.588 4.993-7.155-0.426-3.162-3.508-4.771-6.791-4.396z"></path>
</symbol>
<symbol id="icon-Instagram" viewBox="0 0 32 32">
<path fill="#000" style="fill: var(--color3, #000)" d="M7.5 0h16c4.418 0 8 3.582 8 8v16c0 4.418-3.582 8-8 8h-16c-4.418 0-8-3.582-8-8v-16c0-4.418 3.582-8 8-8z"></path>
<path fill="#fff" style="fill: var(--color2, #fff)" d="M13.189 16.097c0-1.608 1.304-2.913 2.914-2.913s2.914 1.304 2.914 2.913-1.305 2.913-2.914 2.913c-1.609 0-2.914-1.304-2.914-2.913zM11.613 16.097c0 2.478 2.010 4.486 4.489 4.486s4.489-2.009 4.489-4.486c0-2.478-2.010-4.486-4.489-4.486s-4.489 2.009-4.489 4.486zM19.72 11.432c0 0.207 0.061 0.41 0.177 0.583s0.279 0.307 0.471 0.386c0.192 0.079 0.403 0.1 0.606 0.060s0.391-0.14 0.537-0.287 0.247-0.333 0.287-0.537c0.041-0.203 0.020-0.414-0.059-0.606s-0.214-0.355-0.386-0.471c-0.173-0.115-0.375-0.177-0.583-0.177h-0c-0.278 0-0.545 0.111-0.742 0.307s-0.307 0.463-0.308 0.741zM12.571 23.209c-0.852-0.039-1.316-0.181-1.624-0.301-0.408-0.159-0.699-0.348-1.006-0.654s-0.496-0.596-0.654-1.004c-0.12-0.307-0.262-0.771-0.301-1.623-0.042-0.921-0.051-1.198-0.051-3.531s0.009-2.609 0.051-3.531c0.039-0.852 0.182-1.314 0.301-1.623 0.159-0.408 0.348-0.699 0.654-1.005s0.597-0.495 1.006-0.654c0.308-0.12 0.771-0.262 1.624-0.301 0.922-0.042 1.198-0.051 3.532-0.051s2.611 0.009 3.533 0.051c0.852 0.039 1.315 0.182 1.623 0.301 0.408 0.158 0.699 0.348 1.006 0.654s0.495 0.597 0.654 1.005c0.12 0.308 0.262 0.771 0.301 1.623 0.042 0.922 0.051 1.198 0.051 3.531s-0.008 2.609-0.051 3.531c-0.039 0.852-0.181 1.315-0.301 1.623-0.159 0.408-0.348 0.699-0.654 1.004s-0.597 0.495-1.006 0.654c-0.308 0.12-0.771 0.262-1.623 0.301-0.922 0.042-1.198 0.051-3.533 0.051s-2.611-0.008-3.532-0.051zM12.498 7.412c-0.931 0.042-1.567 0.19-2.122 0.406-0.575 0.223-1.062 0.522-1.549 1.008s-0.785 0.973-1.008 1.548c-0.216 0.555-0.364 1.191-0.406 2.121-0.043 0.932-0.053 1.229-0.053 3.602s0.010 2.671 0.053 3.602c0.042 0.93 0.19 1.565 0.406 2.121 0.223 0.575 0.522 1.063 1.008 1.548s0.973 0.784 1.549 1.008c0.556 0.216 1.191 0.363 2.122 0.406 0.933 0.042 1.23 0.053 3.604 0.053s2.672-0.010 3.604-0.053c0.931-0.042 1.566-0.19 2.122-0.406 0.575-0.224 1.062-0.522 1.549-1.008s0.785-0.973 1.008-1.548c0.216-0.555 0.364-1.191 0.406-2.121 0.042-0.932 0.052-1.229 0.052-3.602s-0.010-2.671-0.052-3.602c-0.042-0.93-0.19-1.566-0.406-2.121-0.224-0.575-0.523-1.061-1.008-1.548s-0.974-0.785-1.548-1.008c-0.556-0.216-1.192-0.364-2.122-0.406-0.932-0.042-1.23-0.053-3.604-0.053s-2.672 0.010-3.605 0.053z"></path>
</symbol>
        <symbol id="icon-plus" viewBox="0 0 32 32">
            <path d="M31 12h-11v-11c0-0.552-0.448-1-1-1h-6c-0.552 0-1 0.448-1 1v11h-11c-0.552 0-1 0.448-1 1v6c0 0.552 0.448 1 1 1h11v11c0 0.552 0.448 1 1 1h6c0.552 0 1-0.448 1-1v-11h11c0.552 0 1-0.448 1-1v-6c0-0.552-0.448-1-1-1z"></path>
        </symbol>
        <symbol id="icon-minus" viewBox="0 0 32 32">
            <path d="M0 13v6c0 0.552 0.448 1 1 1h30c0.552 0 1-0.448 1-1v-6c0-0.552-0.448-1-1-1h-30c-0.552 0-1 0.448-1 1z"></path>
        </symbol>
        <symbol id="icon-arrow-left" viewBox="0 0 32 32">
            <path d="M12.586 27.414l-10-10c-0.781-0.781-0.781-2.047 0-2.828l10-10c0.781-0.781 2.047-0.781 2.828 0s0.781 2.047 0 2.828l-6.586 6.586h19.172c1.105 0 2 0.895 2 2s-0.895 2-2 2h-19.172l6.586 6.586c0.39 0.39 0.586 0.902 0.586 1.414s-0.195 1.024-0.586 1.414c-0.781 0.781-2.047 0.781-2.828 0z"></path>
        </symbol>
        <symbol id="icon-arrow-right" viewBox="0 0 32 32">
<path d="M19.414 27.414l10-10c0.781-0.781 0.781-2.047 0-2.828l-10-10c-0.781-0.781-2.047-0.781-2.828 0s-0.781 2.047 0 2.828l6.586 6.586h-19.172c-1.105 0-2 0.895-2 2s0.895 2 2 2h19.172l-6.586 6.586c-0.39 0.39-0.586 0.902-0.586 1.414s0.195 1.024 0.586 1.414c0.781 0.781 2.047 0.781 2.828 0z"></path>
</symbol>
    </defs>
</svg>