<svg aria-hidden="true" style="position: absolute; width: 0; height: 0; overflow: hidden;" version="1.1" xmlns="http://www.w3.org/2000/svg" xmlns:xlink="http://www.w3.org/1999/xlink">
<defs>
<symbol id="icon-close" viewBox="0 0 32 32">
<path d="M18.121 16l5.938-5.938c0.282-0.281 0.44-0.663 0.441-1.061s-0.157-0.78-0.439-1.062c-0.281-0.282-0.663-0.44-1.061-0.441s-0.78 0.157-1.062 0.439l-5.937 5.937-5.938-5.937c-0.282-0.282-0.664-0.44-1.063-0.44s-0.781 0.158-1.063 0.44c-0.282 0.282-0.44 0.664-0.44 1.063s0.158 0.781 0.44 1.063l5.937 5.937-5.937 5.937c-0.282 0.282-0.44 0.664-0.44 1.063s0.158 0.781 0.44 1.063c0.282 0.282 0.664 0.44 1.063 0.44s0.781-0.158 1.063-0.44l5.938-5.938 5.937 5.938c0.282 0.282 0.664 0.44 1.063 0.44s0.781-0.158 1.063-0.44c0.282-0.282 0.44-0.664 0.44-1.063s-0.158-0.781-0.44-1.063l-5.941-5.937z"></path>
</symbol>
<symbol id="icon-menu-outline" viewBox="0 0 32 32">
<path d="M4 10c0-0.552 0.448-1 1-1h22c0.552 0 1 0.448 1 1s-0.448 1-1 1h-22c-0.552 0-1-0.448-1-1z"></path>
<path d="M4 16c0-0.552 0.448-1 1-1h22c0.552 0 1 0.448 1 1s-0.448 1-1 1h-22c-0.552 0-1-0.448-1-1z"></path>
<path d="M4 22c0-0.552 0.448-1 1-1h22c0.552 0 1 0.448 1 1s-0.448 1-1 1h-22c-0.552 0-1-0.448-1-1z"></path>
</symbol>
<symbol id="icon-arrow-back-outline" viewBox="0 0 32 32">
<path d="M16.311 5.939c0.586 0.586 0.586 1.536 0 2.121l-7.939 7.939 7.939 7.939c0.586 0.586 0.586 1.536 0 2.121s-1.536 0.586-2.121 0l-9-9c-0.586-0.586-0.586-1.536 0-2.121l9-9c0.586-0.586 1.536-0.586 2.121 0z"></path>
<path d="M6 16c0-0.828 0.672-1.5 1.5-1.5h18.25c0.828 0 1.5 0.672 1.5 1.5s-0.672 1.5-1.5 1.5h-18.25c-0.828 0-1.5-0.672-1.5-1.5z"></path>
</symbol>
</defs>
</svg>
