<svg width="24" height="24" viewBox="0 0 24 24" fill="none" xmlns="http://www.w3.org/2000/svg">
<rect width="24" height="24" rx="6" fill="#FF0000"/>
<path d="M11.413 6.04013C9.46507 6.26274 7.52399 7.87605 7.44388 10.1806C7.39352 11.5877 7.7838 12.6434 9.09197 12.9398C9.65964 11.9146 8.90885 11.6885 8.79211 10.9469C8.31256 7.90769 12.2165 5.8351 14.2594 7.9569C15.6729 9.4261 14.7424 13.9462 12.4625 13.4764C10.2788 13.0277 13.5315 9.42962 11.7884 8.72313C10.3715 8.14904 9.61844 10.4794 10.2903 11.6369C9.89655 13.6275 9.04847 15.5033 9.39183 18C10.5054 17.1728 10.8808 15.5888 11.1887 13.9368C11.7484 14.2848 12.0471 14.6468 12.7612 14.7031C15.3948 14.9116 16.8654 12.0119 16.5061 9.33706C16.1868 6.96571 13.8749 5.75894 11.413 6.04013Z" fill="white"/>
</svg>
